<svg width="40" height="40" viewBox="0 0 40 40" fill="none" xmlns="http://www.w3.org/2000/svg">
<path fill-rule="evenodd" clip-rule="evenodd" d="M3.6402 36.0013L0 0H40L36.3559 35.9954L19.9758 40L3.6402 36.0013Z" fill="#0071BC"/>
<path fill-rule="evenodd" clip-rule="evenodd" d="M20.0332 36.9371L33.2527 33.7303L36.35 2.99817H20.0332V36.9371Z" fill="#29ABE2"/>
<path fill-rule="evenodd" clip-rule="evenodd" d="M8.33203 16.2249L8.77053 20.6338L20.0332 16.2249V11.8088L8.33203 16.2249Z" fill="#B3B3B3"/>
<path fill-rule="evenodd" clip-rule="evenodd" d="M32.507 7.09485L20.0332 11.8088V16.2249L32.0769 11.5038L32.507 7.09485Z" fill="#E6E6E6"/>
<path fill-rule="evenodd" clip-rule="evenodd" d="M20.0336 27.7607L19.9949 27.7658L14.4094 26.4431L14.0445 22.9264H9.01758L9.71908 29.8546L19.9938 32.3632L20.0336 32.3549V27.7607Z" fill="#E6E6E6"/>
<path fill-rule="evenodd" clip-rule="evenodd" d="M20.0332 16.2249V20.6338H26.1484L25.5926 26.3981L20.0332 27.7645V32.3584L30.2738 29.8498L31.6223 16.2249H20.0332Z" fill="white"/>
<path fill-rule="evenodd" clip-rule="evenodd" d="M20.0332 16.2249H8.33203L8.77053 20.6338H20.0332V16.2249Z" fill="#E6E6E6"/>
<path fill-rule="evenodd" clip-rule="evenodd" d="M20.0336 11.5038V7.09485H19.9828H7.44336L7.88706 11.5038H20.0336Z" fill="#E6E6E6"/>
<path fill-rule="evenodd" clip-rule="evenodd" d="M20.0332 7.09485V11.4485V11.5038H32.0769L32.507 7.09485H20.0332Z" fill="white"/>
</svg>
