<svg width="40" height="40" viewBox="0 0 40 40" fill="none" xmlns="http://www.w3.org/2000/svg">
<path d="M13.3854 40C17.0654 40 20.0521 37.0133 20.0521 33.3333V26.6666H13.3854C9.70542 26.6666 6.71875 29.6533 6.71875 33.3333C6.71875 37.0133 9.70542 40 13.3854 40Z" fill="#0ACF83"/>
<path d="M6.71875 20C6.71875 16.32 9.70542 13.3334 13.3854 13.3334H20.0521V26.6667H13.3854C9.70542 26.6667 6.71875 23.68 6.71875 20Z" fill="#A259FF"/>
<path d="M6.71875 6.66667C6.71875 2.98667 9.70542 0 13.3854 0H20.0521V13.3333H13.3854C9.70542 13.3333 6.71875 10.3467 6.71875 6.66667Z" fill="#F24E1E"/>
<path d="M19.2705 0H25.9372C29.6172 0 32.6038 2.98667 32.6038 6.66667C32.6038 10.3467 29.6172 13.3333 25.9372 13.3333H19.2705V0Z" fill="#FF7262"/>
<path d="M32.6038 20C32.6038 23.68 29.6172 26.6667 25.9372 26.6667C22.2572 26.6667 19.2705 23.68 19.2705 20C19.2705 16.32 22.2572 13.3334 25.9372 13.3334C29.6172 13.3334 32.6038 16.32 32.6038 20Z" fill="#1ABCFE"/>
</svg>
