<svg width="40" height="40" viewBox="0 0 40 40" fill="none" xmlns="http://www.w3.org/2000/svg">
<path d="M5.46875 32.2866L5.7109 31.9476L17.1659 10.2122L17.1901 9.98214L12.1405 0.497209C11.7174 -0.297325 10.5264 -0.0964392 10.3876 0.79298L5.46875 32.2866Z" fill="#FFC24A"/>
<path d="M5.61133 32.0281L5.79451 31.6709L17.1295 10.1633L12.0925 0.639795C11.6739 -0.146414 10.6108 0.054007 10.4734 0.934107L5.61133 32.0281Z" fill="#FFA712"/>
<path d="M20.8717 17.1566L24.6315 13.306L20.8706 6.1264C20.5136 5.4468 19.5168 5.44484 19.1636 6.1264L17.1543 9.95848V10.2848L20.8717 17.1566Z" fill="#F4BD62"/>
<path d="M20.8045 16.9961L24.4597 13.2526L20.8045 6.29244C20.4574 5.63175 19.6142 5.56253 19.2708 6.22513L17.2508 10.1166L17.1904 10.3155L20.8045 16.9961Z" fill="#FFA50E"/>
<path d="M5.46875 32.2866L5.57851 32.1763L5.97732 32.0142L20.6351 17.4109L20.8208 16.9054L17.1643 9.93762L5.46875 32.2866Z" fill="#F6820C"/>
<path d="M21.3408 39.6514L34.6063 32.2531L30.8181 8.92271C30.6996 8.19276 29.8041 7.90418 29.2817 8.42758L5.46875 32.2866L18.6583 39.6507C19.4918 40.1161 20.507 40.1164 21.3408 39.6514Z" fill="#FDE068"/>
<path d="M34.4879 32.191L30.7284 9.03777C30.6108 8.31336 29.8661 8.0136 29.3476 8.53302L5.61621 32.2413L18.6608 39.5325C19.4881 39.9944 20.4955 39.9946 21.323 39.5332L34.4879 32.191Z" fill="#FCCA3F"/>
<path d="M21.3408 39.4335C20.507 39.8984 19.4918 39.8982 18.6583 39.4328L5.57498 32.1745L5.46875 32.2867L18.6583 39.6508C19.4918 40.1162 20.507 40.1164 21.3408 39.6514L34.6063 32.2531L34.5739 32.0532L21.3408 39.4335Z" fill="#EEAB37"/>
</svg>
