<svg width="40" height="40" viewBox="0 0 40 40" fill="none" xmlns="http://www.w3.org/2000/svg">
<path fill-rule="evenodd" clip-rule="evenodd" d="M3.64024 36.0015L0 0H40L36.3559 35.9958L19.9755 40L3.64024 36.0015Z" fill="#E44D26"/>
<path d="M13.3737 16.2961H20V20.7115H8.79399L7.44336 7.35913H20V11.7746H12.916L13.3737 16.2961Z" fill="#EBEBEB"/>
<path d="M19.9781 27.7686L20 27.7634V32.3573L19.977 32.363L9.7193 29.8521L9.01774 22.9192H14.0446L14.4011 26.4408L19.9781 27.7686Z" fill="#EBEBEB"/>
<path d="M19.9824 7.35913H32.5265L32.0781 11.7746H19.9824V7.35913Z" fill="white"/>
<path d="M19.9824 20.7115V16.2961H31.6225L31.5003 17.4817L30.2482 29.8521L19.9824 32.3608V27.7671L25.5675 26.4379L26.1487 20.7115H19.9824Z" fill="white"/>
</svg>
