<svg width="26" height="49" viewBox="0 0 26 49" fill="none" xmlns="http://www.w3.org/2000/svg">
<path d="M24.9049 38.1327H24.7227V38.0308H25.2131V38.1327H25.0322V38.6412H24.9049V38.1327ZM25.8831 38.1592H25.8802L25.6997 38.6413H25.6171L25.4378 38.1592H25.4355V38.6413H25.3155V38.0309H25.4921L25.6584 38.4631L25.8241 38.0309H26.0001V38.6413H25.883V38.1592H25.8831Z" fill="#E76F00"/>
<path d="M8.59538 25.6508C8.59538 25.6508 7.32789 26.3879 9.49742 26.6373C12.1257 26.9371 13.469 26.8941 16.3655 26.3459C16.3655 26.3459 17.127 26.8234 18.1905 27.237C11.6974 30.0198 3.49545 27.0758 8.59538 25.6508Z" fill="#5382A1"/>
<path d="M7.80272 22.0194C7.80272 22.0194 6.3811 23.0717 8.55224 23.2963C11.3599 23.5859 13.5772 23.6096 17.4139 22.8708C17.4139 22.8708 17.9446 23.4088 18.779 23.7031C10.9286 25.9986 2.18455 23.8841 7.80272 22.0194Z" fill="#5382A1"/>
<path d="M14.4909 15.8593C16.0908 17.7013 14.0705 19.3588 14.0705 19.3588C14.0705 19.3588 18.1329 17.2617 16.2672 14.6356C14.5248 12.1866 13.1885 10.9698 20.4224 6.77441C20.4224 6.77441 9.06758 9.61032 14.4909 15.8593Z" fill="#E76F00"/>
<path d="M23.08 28.3367C23.08 28.3367 24.0179 29.1095 22.047 29.7074C18.2991 30.8428 6.44794 31.1856 3.15574 29.7527C1.97228 29.2378 4.1916 28.5233 4.88972 28.3734C5.61778 28.2155 6.03384 28.245 6.03384 28.245C4.71772 27.3178 -2.47308 30.0655 2.38128 30.8524C15.6198 32.9993 26.5139 29.8856 23.08 28.3367Z" fill="#5382A1"/>
<path d="M9.206 18.2569C9.206 18.2569 3.17776 19.6887 7.07125 20.2086C8.71521 20.4287 11.9924 20.3789 15.045 20.1232C17.5398 19.9127 20.0448 19.4653 20.0448 19.4653C20.0448 19.4653 19.1651 19.842 18.5287 20.2766C12.4071 21.8865 0.581345 21.1376 3.98583 19.4907C6.86501 18.099 9.206 18.2569 9.206 18.2569Z" fill="#5382A1"/>
<path d="M20.0196 24.3015C26.2425 21.0678 23.3653 17.9603 21.357 18.379C20.8648 18.4814 20.6453 18.5702 20.6453 18.5702C20.6453 18.5702 20.828 18.2839 21.177 18.16C25.15 16.7633 28.2055 22.2796 19.8945 24.4644C19.8945 24.4645 19.9908 24.3784 20.0196 24.3015Z" fill="#5382A1"/>
<path d="M16.2667 0C16.2667 0 19.7131 3.44748 12.998 8.74874C7.61329 13.0013 11.7702 15.4259 12.9958 18.1962C9.85264 15.3603 7.54597 12.8639 9.09346 10.5404C11.3648 7.12973 17.6572 5.47612 16.2667 0Z" fill="#E76F00"/>
<path d="M9.81716 33.0639C15.7903 33.4462 24.9628 32.8517 25.1801 30.0254C25.1801 30.0254 24.7625 31.0968 20.2436 31.9477C15.1453 32.9072 8.85738 32.7951 5.12793 32.1803C5.12802 32.1802 5.89139 32.8121 9.81716 33.0639Z" fill="#5382A1"/>
<path d="M8.83778 43.8634C8.27429 44.3522 7.67917 44.6265 7.1451 44.6265C6.3828 44.6265 5.97094 44.1694 5.97094 43.4363C5.97094 42.6432 6.41221 42.0634 8.18257 42.0634H8.83769V43.8634H8.83778ZM10.3926 45.6177V40.1874C10.3926 38.8002 9.60142 37.8849 7.69383 37.8849C6.58019 37.8849 5.60467 38.1599 4.81179 38.5106L5.04065 39.4718C5.66492 39.2427 6.473 39.0294 7.26614 39.0294C8.36503 39.0294 8.83778 39.4718 8.83778 40.3865V41.0728H8.28931C5.61942 41.0728 4.41504 42.1092 4.41504 43.6649C4.41504 45.0074 5.20872 45.7705 6.70311 45.7705C7.6637 45.7705 8.38077 45.3739 9.05108 44.7935L9.17275 45.6178H10.3926V45.6177Z" fill="#E76F00"/>
<path d="M15.5817 45.6177H13.6424L11.3086 38.0223H13.0021L14.4502 42.689L14.7722 44.0924C15.5048 42.0633 16.023 40.0046 16.2821 38.0223H17.9295C17.4881 40.5234 16.6939 43.2687 15.5817 45.6177Z" fill="#E76F00"/>
<path d="M23.0206 43.8634C22.456 44.3522 21.8598 44.6265 21.3258 44.6265C20.5648 44.6265 20.1519 44.1694 20.1519 43.4363C20.1519 42.6432 20.5942 42.0634 22.3644 42.0634H23.0206V43.8634ZM24.5752 45.6177V40.1874C24.5752 38.8002 23.7821 37.8849 21.8767 37.8849C20.7623 37.8849 19.7864 38.1599 18.9939 38.5106L19.2224 39.4718C19.8469 39.2427 20.6565 39.0294 21.449 39.0294C22.5471 39.0294 23.0206 39.4718 23.0206 40.3865V41.0728H22.4712C19.8005 41.0728 18.5967 42.1092 18.5967 43.6649C18.5967 45.0074 19.3897 45.7705 20.8839 45.7705C21.845 45.7705 22.5618 45.3739 23.2333 44.7935L23.3554 45.6178H24.5752V45.6177Z" fill="#E76F00"/>
<path d="M2.71057 46.9076C2.26733 47.5548 1.55143 48.0668 0.767667 48.3564L0 47.4531C0.596558 47.147 1.10819 46.6526 1.3459 46.1921C1.55152 45.7826 1.63662 45.2547 1.63662 43.9925V35.3213H3.28853V43.8737C3.28844 45.5612 3.15354 46.2429 2.71057 46.9076Z" fill="#E76F00"/>
</svg>
