<svg width="54" height="54" viewBox="0 0 54 54" fill="none" xmlns="http://www.w3.org/2000/svg">
<path d="M7.60096 11.0769H35.3221C36.3206 11.0759 37.3094 11.2769 38.232 11.6684C39.1546 12.0598 39.9929 12.634 40.6989 13.3581C41.4049 14.0822 41.9648 14.942 42.3464 15.8883C42.7281 16.8346 42.924 17.8487 42.9231 18.8728V46.2041C42.924 47.2282 42.7281 48.2423 42.3464 49.1886C41.9648 50.1349 41.4049 50.9947 40.6989 51.7188C39.9929 52.4429 39.1546 53.0171 38.232 53.4085C37.3094 53.8 36.3206 54.0009 35.3221 54H7.60096C6.60253 54.0009 5.61371 53.8 4.69109 53.4085C3.76847 53.0171 2.93018 52.4429 2.22417 51.7188C1.51817 50.9947 0.958326 50.1349 0.576675 49.1886C0.195025 48.2423 -0.000937661 47.2282 3.37317e-06 46.2041V18.8728C-0.000937661 17.8487 0.195025 16.8346 0.576675 15.8883C0.958326 14.942 1.51817 14.0822 2.22417 13.3581C2.93018 12.634 3.76847 12.0598 4.69109 11.6684C5.61371 11.2769 6.60253 11.0759 7.60096 11.0769Z" fill="#F7DF1E"/>
<path d="M24.7495 37.242C25.7652 38.8964 27.0866 40.1125 29.4237 40.1125C31.3871 40.1125 32.6412 39.1336 32.6412 37.781C32.6412 36.16 31.3526 35.5859 29.1916 34.6429L28.0071 34.1359C24.5879 32.6826 22.3164 30.8621 22.3164 27.0134C22.3164 23.4682 25.0241 20.7693 29.2557 20.7693C32.2683 20.7693 34.4341 21.8153 35.9948 24.5541L32.3051 26.9176C31.4927 25.4644 30.6163 24.8918 29.2557 24.8918C27.8678 24.8918 26.9882 25.7702 26.9882 26.9176C26.9882 28.3357 27.8686 28.9098 29.9016 29.7881L31.0861 30.2944C35.112 32.0167 37.3851 33.7726 37.3851 37.7203C37.3851 41.9762 34.0339 44.3077 29.5334 44.3077C25.1329 44.3077 22.29 42.2157 20.8989 39.4737L24.7495 37.242ZM8.0113 37.6516C8.75565 38.9691 9.43277 40.083 11.0607 40.083C12.6175 40.083 13.5995 39.4753 13.5995 37.1126V21.0392H18.3377V37.1765C18.3377 42.0712 15.4612 44.299 11.2624 44.299C7.46865 44.299 5.27162 42.3403 4.1543 39.9812L8.0113 37.6516Z" fill="black"/>
</svg>
