<svg width="357" height="30" viewBox="0 0 357 30" fill="none" xmlns="http://www.w3.org/2000/svg">
<path d="M0.24 29V2.52H12.16C14.9867 2.52 17.2133 3.29333 18.84 4.84C20.4667 6.36 21.28 8.42666 21.28 11.04C21.28 13.6533 20.4667 15.7333 18.84 17.28C17.2133 18.8 14.9867 19.56 12.16 19.56H3.24V29H0.24ZM3.24 16.76H11.96C14.04 16.76 15.6133 16.2533 16.68 15.24C17.7467 14.2267 18.28 12.8267 18.28 11.04C18.28 9.28 17.7467 7.89333 16.68 6.88C15.6133 5.86667 14.04 5.36 11.96 5.36H3.24V16.76ZM33.3972 29.32C31.3705 29.32 29.6105 28.8667 28.1172 27.96C26.6239 27.0267 25.4772 25.7733 24.6772 24.2C23.8772 22.6267 23.4772 20.8933 23.4772 19C23.4772 17.08 23.8772 15.3467 24.6772 13.8C25.4772 12.2267 26.6239 10.9867 28.1172 10.08C29.6105 9.14667 31.3705 8.68 33.3972 8.68C35.4505 8.68 37.2105 9.14667 38.6772 10.08C40.1705 10.9867 41.3172 12.2267 42.1172 13.8C42.9172 15.3467 43.3172 17.08 43.3172 19C43.3172 20.8933 42.9172 22.6267 42.1172 24.2C41.3172 25.7733 40.1705 27.0267 38.6772 27.96C37.2105 28.8667 35.4505 29.32 33.3972 29.32ZM33.3972 26.6C34.8905 26.6 36.1439 26.2533 37.1572 25.56C38.1972 24.8667 38.9839 23.9467 39.5172 22.8C40.0505 21.6267 40.3172 20.36 40.3172 19C40.3172 17.6133 40.0505 16.3467 39.5172 15.2C38.9839 14.0533 38.1972 13.1333 37.1572 12.44C36.1439 11.7467 34.8905 11.4 33.3972 11.4C31.9305 11.4 30.6772 11.7467 29.6372 12.44C28.5972 13.1333 27.8105 14.0533 27.2772 15.2C26.7439 16.3467 26.4772 17.6133 26.4772 19C26.4772 20.36 26.7439 21.6267 27.2772 22.8C27.8105 23.9467 28.5972 24.8667 29.6372 25.56C30.6772 26.2533 31.9305 26.6 33.3972 26.6ZM47.2953 29V9H50.2953V13.92C50.402 13.5733 50.602 13.12 50.8953 12.56C51.2153 11.9733 51.6686 11.3867 52.2553 10.8C52.842 10.2133 53.5753 9.72 54.4553 9.32C55.362 8.89333 56.4286 8.68 57.6553 8.68H57.8553V11.68H57.4953C56.002 11.68 54.7086 12.0933 53.6153 12.92C52.5486 13.72 51.722 14.7733 51.1353 16.08C50.5753 17.36 50.2953 18.7333 50.2953 20.2V29H47.2953ZM63.2444 29V11.64H59.1644V9H63.2444V1.84H66.2444V9H70.8444V11.64H66.2444V29H63.2444ZM75.4913 29V11.64H72.0513V9H75.4913V7.24C75.4913 5.05333 76.1446 3.41333 77.4513 2.32C78.7846 1.22667 80.5979 0.68 82.8913 0.68H83.1313V3.52H82.7313C81.3446 3.52 80.2913 3.84 79.5713 4.48C78.8513 5.09333 78.4913 6.09333 78.4913 7.48V9H83.1313V11.64H78.4913V29H75.4913ZM94.6863 29.32C92.6596 29.32 90.8996 28.8667 89.4063 27.96C87.9129 27.0267 86.7663 25.7733 85.9663 24.2C85.1663 22.6267 84.7663 20.8933 84.7663 19C84.7663 17.08 85.1663 15.3467 85.9663 13.8C86.7663 12.2267 87.9129 10.9867 89.4063 10.08C90.8996 9.14667 92.6596 8.68 94.6863 8.68C96.7396 8.68 98.4996 9.14667 99.9663 10.08C101.46 10.9867 102.606 12.2267 103.406 13.8C104.206 15.3467 104.606 17.08 104.606 19C104.606 20.8933 104.206 22.6267 103.406 24.2C102.606 25.7733 101.46 27.0267 99.9663 27.96C98.4996 28.8667 96.7396 29.32 94.6863 29.32ZM94.6863 26.6C96.1796 26.6 97.4329 26.2533 98.4463 25.56C99.4863 24.8667 100.273 23.9467 100.806 22.8C101.34 21.6267 101.606 20.36 101.606 19C101.606 17.6133 101.34 16.3467 100.806 15.2C100.273 14.0533 99.4863 13.1333 98.4463 12.44C97.4329 11.7467 96.1796 11.4 94.6863 11.4C93.2196 11.4 91.9663 11.7467 90.9263 12.44C89.8863 13.1333 89.0996 14.0533 88.5663 15.2C88.0329 16.3467 87.7663 17.6133 87.7663 19C87.7663 20.36 88.0329 21.6267 88.5663 22.8C89.0996 23.9467 89.8863 24.8667 90.9263 25.56C91.9663 26.2533 93.2196 26.6 94.6863 26.6ZM108.584 29V0.999998H111.584V29H108.584ZM116.668 5.64V1.72H119.908V5.64H116.668ZM116.788 29V9H119.788V29H116.788ZM133.671 29.32C131.644 29.32 129.884 28.8667 128.391 27.96C126.897 27.0267 125.751 25.7733 124.951 24.2C124.151 22.6267 123.751 20.8933 123.751 19C123.751 17.08 124.151 15.3467 124.951 13.8C125.751 12.2267 126.897 10.9867 128.391 10.08C129.884 9.14667 131.644 8.68 133.671 8.68C135.724 8.68 137.484 9.14667 138.951 10.08C140.444 10.9867 141.591 12.2267 142.391 13.8C143.191 15.3467 143.591 17.08 143.591 19C143.591 20.8933 143.191 22.6267 142.391 24.2C141.591 25.7733 140.444 27.0267 138.951 27.96C137.484 28.8667 135.724 29.32 133.671 29.32ZM133.671 26.6C135.164 26.6 136.417 26.2533 137.431 25.56C138.471 24.8667 139.257 23.9467 139.791 22.8C140.324 21.6267 140.591 20.36 140.591 19C140.591 17.6133 140.324 16.3467 139.791 15.2C139.257 14.0533 138.471 13.1333 137.431 12.44C136.417 11.7467 135.164 11.4 133.671 11.4C132.204 11.4 130.951 11.7467 129.911 12.44C128.871 13.1333 128.084 14.0533 127.551 15.2C127.017 16.3467 126.751 17.6133 126.751 19C126.751 20.36 127.017 21.6267 127.551 22.8C128.084 23.9467 128.871 24.8667 129.911 25.56C130.951 26.2533 132.204 26.6 133.671 26.6ZM165.975 29.32C163.949 29.32 162.189 28.8667 160.695 27.96C159.202 27.0267 158.055 25.7733 157.255 24.2C156.455 22.6267 156.055 20.8933 156.055 19C156.055 17.08 156.455 15.3467 157.255 13.8C158.055 12.2267 159.202 10.9867 160.695 10.08C162.189 9.14667 163.949 8.68 165.975 8.68C168.029 8.68 169.789 9.14667 171.255 10.08C172.749 10.9867 173.895 12.2267 174.695 13.8C175.495 15.3467 175.895 17.08 175.895 19C175.895 20.8933 175.495 22.6267 174.695 24.2C173.895 25.7733 172.749 27.0267 171.255 27.96C169.789 28.8667 168.029 29.32 165.975 29.32ZM165.975 26.6C167.469 26.6 168.722 26.2533 169.735 25.56C170.775 24.8667 171.562 23.9467 172.095 22.8C172.629 21.6267 172.895 20.36 172.895 19C172.895 17.6133 172.629 16.3467 172.095 15.2C171.562 14.0533 170.775 13.1333 169.735 12.44C168.722 11.7467 167.469 11.4 165.975 11.4C164.509 11.4 163.255 11.7467 162.215 12.44C161.175 13.1333 160.389 14.0533 159.855 15.2C159.322 16.3467 159.055 17.6133 159.055 19C159.055 20.36 159.322 21.6267 159.855 22.8C160.389 23.9467 161.175 24.8667 162.215 25.56C163.255 26.2533 164.509 26.6 165.975 26.6ZM181.233 29V11.64H177.793V9H181.233V7.24C181.233 5.05333 181.887 3.41333 183.193 2.32C184.527 1.22667 186.34 0.68 188.633 0.68H188.873V3.52H188.473C187.087 3.52 186.033 3.84 185.313 4.48C184.593 5.09333 184.233 6.09333 184.233 7.48V9H188.873V11.64H184.233V29H181.233ZM209.335 29.32C207.308 29.32 205.548 28.8667 204.055 27.96C202.561 27.0267 201.415 25.7733 200.615 24.2C199.815 22.6267 199.415 20.8933 199.415 19C199.415 17.08 199.815 15.3467 200.615 13.8C201.415 12.2267 202.561 10.9867 204.055 10.08C205.548 9.14667 207.308 8.68 209.335 8.68C211.388 8.68 213.148 9.14667 214.615 10.08C216.108 10.9867 217.255 12.2267 218.055 13.8C218.855 15.3467 219.255 17.08 219.255 19C219.255 20.8933 218.855 22.6267 218.055 24.2C217.255 25.7733 216.108 27.0267 214.615 27.96C213.148 28.8667 211.388 29.32 209.335 29.32ZM209.335 26.6C210.828 26.6 212.081 26.2533 213.095 25.56C214.135 24.8667 214.921 23.9467 215.455 22.8C215.988 21.6267 216.255 20.36 216.255 19C216.255 17.6133 215.988 16.3467 215.455 15.2C214.921 14.0533 214.135 13.1333 213.095 12.44C212.081 11.7467 210.828 11.4 209.335 11.4C207.868 11.4 206.615 11.7467 205.575 12.44C204.535 13.1333 203.748 14.0533 203.215 15.2C202.681 16.3467 202.415 17.6133 202.415 19C202.415 20.36 202.681 21.6267 203.215 22.8C203.748 23.9467 204.535 24.8667 205.575 25.56C206.615 26.2533 207.868 26.6 209.335 26.6ZM231.033 29.32C229.673 29.32 228.379 29 227.153 28.36C225.926 27.6933 224.926 26.72 224.153 25.44C223.406 24.1333 223.033 22.5333 223.033 20.64V9H226.033V20.56C226.033 22.3733 226.553 23.84 227.593 24.96C228.659 26.0533 230.006 26.6 231.633 26.6C232.753 26.6 233.766 26.3467 234.673 25.84C235.579 25.3067 236.299 24.5867 236.833 23.68C237.393 22.7733 237.673 21.72 237.673 20.52V9H240.673V29H237.673V25.88C236.953 26.84 236.073 27.6533 235.033 28.32C233.993 28.9867 232.659 29.32 231.033 29.32ZM245.889 29V9H248.889V13.92C248.996 13.5733 249.196 13.12 249.489 12.56C249.809 11.9733 250.262 11.3867 250.849 10.8C251.436 10.2133 252.169 9.72 253.049 9.32C253.956 8.89333 255.022 8.68 256.249 8.68H256.449V11.68H256.089C254.596 11.68 253.302 12.0933 252.209 12.92C251.142 13.72 250.316 14.7733 249.729 16.08C249.169 17.36 248.889 18.7333 248.889 20.2V29H245.889ZM270.354 29V11.64H266.274V9H270.354V1.84H273.354V9H277.954V11.64H273.354V29H270.354ZM289.73 29.32C287.703 29.32 285.93 28.8667 284.41 27.96C282.89 27.0267 281.703 25.7733 280.85 24.2C280.023 22.6267 279.61 20.8933 279.61 19C279.61 17.08 280.01 15.3467 280.81 13.8C281.61 12.2267 282.757 10.9867 284.25 10.08C285.743 9.14667 287.503 8.68 289.53 8.68C291.583 8.68 293.343 9.14667 294.81 10.08C296.303 10.9867 297.45 12.2267 298.25 13.8C299.05 15.3467 299.45 17.08 299.45 19V20.2H282.69C282.85 21.3733 283.223 22.4533 283.81 23.44C284.423 24.4 285.237 25.1733 286.25 25.76C287.263 26.32 288.437 26.6 289.77 26.6C291.183 26.6 292.37 26.2933 293.33 25.68C294.29 25.04 295.037 24.2267 295.57 23.24H298.85C298.157 25.0267 297.05 26.4933 295.53 27.64C294.037 28.76 292.103 29.32 289.73 29.32ZM282.73 17.4H296.33C296.063 15.6933 295.343 14.2667 294.17 13.12C292.997 11.9733 291.45 11.4 289.53 11.4C287.61 11.4 286.063 11.9733 284.89 13.12C283.743 14.2667 283.023 15.6933 282.73 17.4ZM311.556 29.32C309.609 29.32 307.902 28.8667 306.436 27.96C304.996 27.0267 303.876 25.7733 303.076 24.2C302.276 22.6267 301.876 20.8933 301.876 19C301.876 17.08 302.276 15.3467 303.076 13.8C303.876 12.2267 304.996 10.9867 306.436 10.08C307.902 9.14667 309.609 8.68 311.556 8.68C313.209 8.68 314.622 9 315.796 9.64C316.996 10.28 317.969 11.1467 318.716 12.24V9H321.716V29H318.716V25.8C317.969 26.8667 316.996 27.72 315.796 28.36C314.622 29 313.209 29.32 311.556 29.32ZM311.956 26.6C313.449 26.6 314.702 26.2533 315.716 25.56C316.756 24.8667 317.542 23.9467 318.076 22.8C318.609 21.6267 318.876 20.36 318.876 19C318.876 17.6133 318.609 16.3467 318.076 15.2C317.542 14.0533 316.756 13.1333 315.716 12.44C314.702 11.7467 313.449 11.4 311.956 11.4C310.489 11.4 309.222 11.7467 308.156 12.44C307.089 13.1333 306.276 14.0533 305.716 15.2C305.156 16.3467 304.876 17.6133 304.876 19C304.876 20.36 305.156 21.6267 305.716 22.8C306.276 23.9467 307.089 24.8667 308.156 25.56C309.222 26.2533 310.489 26.6 311.956 26.6ZM326.905 29V9H329.905V12.04C330.358 11.24 331.078 10.48 332.065 9.76C333.051 9.04 334.358 8.68 335.985 8.68C337.318 8.68 338.545 9.04 339.665 9.76C340.811 10.4533 341.705 11.44 342.345 12.72C342.611 12.2667 343.025 11.72 343.585 11.08C344.171 10.44 344.931 9.88 345.865 9.4C346.798 8.92 347.918 8.68 349.225 8.68C350.505 8.68 351.705 9.01333 352.825 9.68C353.945 10.3467 354.851 11.3067 355.545 12.56C356.265 13.7867 356.625 15.24 356.625 16.92V29H353.625V17C353.625 15.32 353.145 13.9733 352.185 12.96C351.251 11.92 350.078 11.4 348.665 11.4C347.198 11.4 345.931 11.8933 344.865 12.88C343.798 13.8667 343.265 15.2533 343.265 17.04V29H340.265V17C340.265 15.32 339.785 13.9733 338.825 12.96C337.891 11.92 336.718 11.4 335.305 11.4C333.838 11.4 332.571 11.8933 331.505 12.88C330.438 13.8667 329.905 15.2533 329.905 17.04V29H326.905Z" fill="url(#paint0_linear_167_1224)"/>
<defs>
<linearGradient id="paint0_linear_167_1224" x1="-3" y1="-4" x2="591.106" y2="-3.99973" gradientUnits="userSpaceOnUse">
<stop stop-color="#962332"/>
<stop offset="0.0729167" stop-color="#D5131B"/>
<stop offset="0.160533" stop-color="#6A388D"/>
<stop offset="0.245526" stop-color="#473985"/>
<stop offset="0.334382" stop-color="#223B7D"/>
<stop offset="0.384605" stop-color="#23649E"/>
<stop offset="0.488915" stop-color="#237DB2"/>
<stop offset="0.546865" stop-color="#009C5F"/>
<stop offset="0.620268" stop-color="#89BC6F"/>
</linearGradient>
</defs>
</svg>
