<svg width="42" height="42" viewBox="0 0 42 42" fill="none" xmlns="http://www.w3.org/2000/svg">
<g clip-path="url(#clip0_150_1096)">
<path d="M7.4375 3.38526e-06H34.5625C35.5395 -0.000941022 36.507 0.195724 37.4098 0.578742C38.3126 0.961761 39.1328 1.52361 39.8237 2.23215C40.5145 2.94068 41.0623 3.78198 41.4357 4.7079C41.8092 5.63383 42.0009 6.62619 42 7.62821V34.3718C42.0009 35.3738 41.8092 36.3662 41.4357 37.2921C41.0623 38.218 40.5145 39.0593 39.8237 39.7679C39.1328 40.4764 38.3126 41.0382 37.4098 41.4213C36.507 41.8043 35.5395 42.0009 34.5625 42H7.4375C6.46054 42.0009 5.49298 41.8043 4.59021 41.4213C3.68743 41.0382 2.86716 40.4764 2.17634 39.7679C1.48552 39.0593 0.937717 38.218 0.564274 37.2921C0.190831 36.3662 -0.000917497 35.3738 3.30063e-06 34.3718V7.62821C-0.000917497 6.62619 0.190831 5.63383 0.564274 4.7079C0.937717 3.78198 1.48552 2.94068 2.17634 2.23215C2.86716 1.52361 3.68743 0.961761 4.59021 0.578742C5.49298 0.195724 6.46054 -0.000941022 7.4375 3.38526e-06Z" fill="#FFD02F"/>
<path d="M28.6193 5.59998H24.1358L28.1162 11.7687L19.7013 5.59998H15.2178L19.1982 13.6832L10.7833 5.59998H6.2998L10.2146 16.0352L6.2998 36.4H10.7833L19.1982 14.5644L15.2178 36.4H19.7013L28.1162 12.6507L24.1358 36.4H28.6193L37.0998 10.3119L28.6193 5.59998Z" fill="#050038"/>
</g>
<defs>
<clipPath id="clip0_150_1096">
<rect width="42" height="42" fill="white"/>
</clipPath>
</defs>
</svg>
