<svg width="42" height="42" viewBox="0 0 42 42" fill="none" xmlns="http://www.w3.org/2000/svg">
<path d="M34.65 0H7.35C3.29071 0 0 3.29071 0 7.35V34.65C0 38.7093 3.29071 42 7.35 42H34.65C38.7093 42 42 38.7093 42 34.65V7.35C42 3.29071 38.7093 0 34.65 0Z" fill="#001E36"/>
<path d="M9.4502 29.7766V12.0053C9.4502 11.8781 9.51389 11.8145 9.64129 11.8145C11.0244 11.7782 12.7806 11.76 14.9099 11.76C17.4214 11.76 19.2595 12.3233 20.4242 13.4499C21.6072 14.5765 22.1986 15.9666 22.1986 17.6202C22.1986 19.6735 21.4707 21.1999 20.0147 22.1993C18.5588 23.1987 16.7298 23.6984 14.5277 23.6984H12.9171V29.7494C12.9171 29.8948 12.8443 29.9674 12.6987 29.9674H9.66858C9.52299 29.9674 9.4502 29.9038 9.4502 29.7766ZM12.9171 14.3766V21.0818C13.1719 21.1181 13.7634 21.1363 14.6915 21.1363C15.9109 21.1363 16.8936 20.8728 17.6398 20.3458C18.4041 19.8007 18.7863 18.9194 18.7863 17.702C18.7863 16.6299 18.4496 15.8031 17.7763 15.2216C17.1211 14.6401 16.1656 14.3494 14.9099 14.3494C14.6005 14.3494 14.2911 14.3585 13.9818 14.3766C13.6906 14.3766 13.4449 14.3766 13.2447 14.3766C13.0627 14.3766 12.9535 14.3766 12.9171 14.3766Z" fill="#31A8FE"/>
<path d="M31.7228 19.828C30.7037 19.192 29.6391 18.874 28.5289 18.874C27.8919 18.874 27.4188 18.9921 27.1094 19.2283C26.8182 19.4646 26.6726 19.7462 26.6726 20.0733C26.6726 20.4004 26.8 20.6911 27.0548 20.9455C27.3096 21.1817 27.8465 21.4634 28.6654 21.7905C30.1759 22.3719 31.2315 22.9897 31.832 23.6439C32.4508 24.2799 32.7602 25.1067 32.7602 26.1243C32.7602 27.3599 32.287 28.3593 31.3407 29.1225C30.4125 29.8675 29.1477 30.24 27.5462 30.24C25.9446 30.24 24.6343 29.9493 23.6152 29.3678C23.506 29.3315 23.4514 29.2406 23.4514 29.0952V26.5604C23.4514 26.4877 23.4696 26.4423 23.506 26.4241C23.5606 26.3877 23.6061 26.3877 23.6425 26.4241C24.8254 27.2963 26.0902 27.7324 27.437 27.7324C28.0739 27.7324 28.5562 27.6234 28.8838 27.4053C29.2296 27.1691 29.4025 26.8693 29.4025 26.5058C29.4025 26.1243 29.266 25.8063 28.993 25.5519C28.72 25.2793 28.1831 24.9886 27.3824 24.6797C25.9265 24.1164 24.9073 23.5167 24.3249 22.8807C23.7608 22.2266 23.4787 21.4089 23.4787 20.4276C23.4787 19.301 23.9064 18.3561 24.7617 17.5929C25.6171 16.8297 26.8364 16.4482 28.4197 16.4482C29.8938 16.4482 31.0313 16.648 31.832 17.0478C31.923 17.1023 31.9685 17.2204 31.9685 17.4021V19.6644C31.9685 19.8825 31.8866 19.937 31.7228 19.828Z" fill="#31A8FE"/>
</svg>
