<svg width="44" height="43" viewBox="0 0 44 43" fill="none" xmlns="http://www.w3.org/2000/svg">
<path d="M21.4159 0C10.4635 7.81422e-07 11.1475 4.74958 11.1475 4.74958L11.1597 9.6701H21.6112V11.1475H7.00838C7.00838 11.1475 0 10.3527 0 21.4036C-7.81422e-07 32.4546 6.11707 32.0627 6.11707 32.0627H9.76778V26.9347C9.76778 26.9347 9.571 20.8176 15.7872 20.8176C22.0033 20.8176 26.1532 20.8176 26.1532 20.8176C26.1532 20.8176 31.9773 20.9117 31.9773 15.1889C31.9773 9.46607 31.9773 5.72636 31.9773 5.72636C31.9773 5.72636 32.8615 0 21.4159 0ZM15.6529 3.30884C16.6927 3.30883 17.5332 4.14928 17.5332 5.18913C17.5332 6.22898 16.6927 7.06943 15.6529 7.06943C14.613 7.06943 13.7726 6.22898 13.7726 5.18913C13.7726 4.14928 14.613 3.30884 15.6529 3.30884Z" fill="url(#paint0_linear_150_1092)"/>
<path d="M21.7276 42.9181C32.68 42.9181 31.996 38.1685 31.996 38.1685L31.9838 33.248H21.5323V31.7706H36.1351C36.1351 31.7706 43.1435 32.5654 43.1435 21.5144C43.1435 10.4635 37.0264 10.8554 37.0264 10.8554H33.3757V15.9834C33.3757 15.9834 33.5725 22.1005 27.3563 22.1005C21.1401 22.1005 16.9903 22.1005 16.9903 22.1005C16.9903 22.1005 11.1662 22.0064 11.1662 27.7292C11.1662 33.452 11.1662 37.1917 11.1662 37.1917C11.1662 37.1917 10.282 42.9181 21.7276 42.9181ZM27.4906 39.6093C26.4508 39.6093 25.6103 38.7688 25.6103 37.729C25.6103 36.6891 26.4508 35.8487 27.4906 35.8487C28.5305 35.8487 29.3709 36.6891 29.3709 37.729C29.3709 38.7688 28.5305 39.6093 27.4906 39.6093Z" fill="url(#paint1_linear_150_1092)"/>
<defs>
<linearGradient id="paint0_linear_150_1092" x1="4.1461" y1="3.75142" x2="25.4789" y2="25.1556" gradientUnits="userSpaceOnUse">
<stop stop-color="#387EB8"/>
<stop offset="1" stop-color="#366994"/>
</linearGradient>
<linearGradient id="paint1_linear_150_1092" x1="17.2699" y1="17.3678" x2="40.1814" y2="39.3182" gradientUnits="userSpaceOnUse">
<stop stop-color="#FFE052"/>
<stop offset="1" stop-color="#FFC331"/>
</linearGradient>
</defs>
</svg>
