<svg width="43" height="39" viewBox="0 0 43 39" fill="none" xmlns="http://www.w3.org/2000/svg">
<g clip-path="url(#clip0_150_1029)">
<path d="M21.4996 23.4069C23.6163 23.4069 25.3322 21.6577 25.3322 19.5C25.3322 17.3422 23.6163 15.593 21.4996 15.593C19.3829 15.593 17.667 17.3422 17.667 19.5C17.667 21.6577 19.3829 23.4069 21.4996 23.4069Z" fill="#61DAFB"/>
<path fill-rule="evenodd" clip-rule="evenodd" d="M3.15129 17.0621C2.22138 17.9179 1.83073 18.7432 1.83073 19.5C1.83073 20.2568 2.22138 21.0821 3.15129 21.9378C4.0811 22.7935 5.47687 23.6059 7.27785 24.3069C10.8737 25.7065 15.9017 26.5913 21.5001 26.5913C27.0985 26.5913 32.1266 25.7065 35.7224 24.3069C37.5234 23.6059 38.9191 22.7935 39.8489 21.9378C40.7788 21.0821 41.1695 20.2568 41.1695 19.5C41.1695 18.7432 40.7788 17.9179 39.8489 17.0621C38.9191 16.2065 37.5234 15.3941 35.7224 14.6931C32.1266 13.2935 27.0985 12.4087 21.5001 12.4087C15.9017 12.4087 10.8737 13.2935 7.27785 14.6931C5.47687 15.3941 4.0811 16.2065 3.15129 17.0621ZM6.63876 12.9868C10.4861 11.4893 15.7406 10.5823 21.5001 10.5823C27.2596 10.5823 32.5141 11.4893 36.3615 12.9868C38.282 13.7344 39.898 14.6468 41.0495 15.7064C42.2009 16.766 42.9612 18.0464 42.9612 19.5C42.9612 20.9536 42.2009 22.234 41.0495 23.2936C39.898 24.3532 38.282 25.2656 36.3615 26.0132C32.5141 27.5107 27.2596 28.4177 21.5001 28.4177C15.7406 28.4177 10.4861 27.5107 6.63876 26.0132C4.71818 25.2656 3.10223 24.3532 1.95073 23.2936C0.799329 22.234 0.0390625 20.9536 0.0390625 19.5C0.0390625 18.0464 0.799329 16.766 1.95073 15.7064C3.10223 14.6468 4.71818 13.7344 6.63876 12.9868Z" fill="#61DAFB"/>
<path fill-rule="evenodd" clip-rule="evenodd" d="M14.3969 2.08222C13.2049 1.68914 12.3084 1.75693 11.6655 2.13531C11.0226 2.5137 10.5168 3.27125 10.2548 4.52006C9.99276 5.76875 10.0005 7.40717 10.3054 9.34763C10.9143 13.2219 12.6767 18.1032 15.4759 23.0456C18.275 27.988 21.5408 31.9845 24.5277 34.4592C26.0237 35.6986 27.4118 36.5247 28.6036 36.9177C29.7955 37.3108 30.692 37.243 31.3349 36.8646C31.9778 36.4862 32.4837 35.7287 32.7457 34.4799C33.0077 33.2312 33 31.5927 32.695 29.6523C32.0861 25.778 30.3238 20.8967 27.5246 15.9543C24.7254 11.0119 21.4597 7.01541 18.4728 4.54073C16.9768 3.30126 15.5887 2.47526 14.3969 2.08222ZM19.6028 3.12338C22.7986 5.77117 26.1965 9.95647 29.0762 15.0411C31.956 20.1257 33.8126 25.2181 34.4641 29.3634C34.7894 31.4327 34.8222 33.3155 34.4977 34.8619C34.1733 36.4081 33.4657 37.7195 32.2308 38.4463C30.9958 39.1731 29.5279 39.1422 28.0521 38.6554C26.5761 38.1687 24.993 37.1983 23.3977 35.8765C20.2018 33.2287 16.804 29.0434 13.9242 23.9588C11.0445 18.8742 9.18781 13.7818 8.53632 9.63656C8.2111 7.56725 8.17826 5.68445 8.50272 4.13805C8.82717 2.59178 9.53479 1.28039 10.7697 0.553585C12.0046 -0.173224 13.4725 -0.142244 14.9484 0.344466C16.4243 0.831217 18.0074 1.80161 19.6028 3.12338Z" fill="#61DAFB"/>
<path fill-rule="evenodd" clip-rule="evenodd" d="M32.7456 4.52007C32.4836 3.27126 31.9777 2.51371 31.3348 2.13532C30.6919 1.75694 29.7954 1.68914 28.6035 2.08223C27.4117 2.47527 26.0236 3.30127 24.5276 4.54074C21.5407 7.01542 18.2749 11.0119 15.4758 15.9543C12.6766 20.8967 10.9142 25.778 10.3053 29.6523C10.0003 31.5927 9.99265 33.2312 10.2547 34.4799C10.5167 35.7287 11.0225 36.4862 11.6654 36.8646C12.3083 37.243 13.2048 37.3108 14.3968 36.9177C15.5886 36.5247 16.9767 35.6987 18.4727 34.4592C21.4596 31.9845 24.7253 27.988 27.5245 23.0456C30.3237 18.1032 32.086 13.2219 32.6949 9.34764C32.9999 7.40718 33.0076 5.76876 32.7456 4.52007ZM34.464 9.63657C33.8125 13.7818 31.9559 18.8742 29.0761 23.9588C26.1964 29.0434 22.7985 33.2288 19.6027 35.8765C18.0073 37.1983 16.4242 38.1687 14.9482 38.6555C13.4724 39.1422 12.0045 39.1731 10.7696 38.4463C9.53468 37.7195 8.82706 36.4081 8.50262 34.8619C8.17815 33.3155 8.21099 31.4327 8.53621 29.3634C9.1877 25.2181 11.0444 20.1257 13.9241 15.0411C16.8039 9.95648 20.2017 5.77117 23.3976 3.12339C24.9929 1.80162 26.576 0.831225 28.052 0.344474C29.5278 -0.142236 30.9957 -0.173216 32.2306 0.553593C33.4656 1.2804 34.1732 2.59179 34.4976 4.13806C34.8221 5.68446 34.7893 7.56726 34.464 9.63657Z" fill="#61DAFB"/>
</g>
<defs>
<clipPath id="clip0_150_1029">
<rect width="43" height="39" fill="white"/>
</clipPath>
</defs>
</svg>
