<svg width="43" height="43" viewBox="0 0 43 43" fill="none" xmlns="http://www.w3.org/2000/svg">
<g clip-path="url(#clip0_150_1038)">
<path d="M7.61459 3.46587e-06H35.3854C36.3856 -0.000963427 37.3762 0.200384 38.3005 0.592522C39.2248 0.98466 40.0646 1.55989 40.7718 2.28529C41.4791 3.01069 42.04 3.87203 42.4223 4.82C42.8046 5.76796 43.0009 6.78396 43 7.80983V35.1902C43.0009 36.216 42.8046 37.232 42.4223 38.18C42.04 39.128 41.4791 39.9893 40.7718 40.7147C40.0646 41.4401 39.2248 42.0153 38.3005 42.4075C37.3762 42.7996 36.3856 43.001 35.3854 43H7.61459C6.61436 43.001 5.62377 42.7996 4.6995 42.4075C3.77523 42.0153 2.93543 41.4401 2.22816 40.7147C1.52089 39.9893 0.960044 39.128 0.577709 38.18C0.195374 37.232 -0.000939342 36.216 3.37922e-06 35.1902V7.80983C-0.000939342 6.78396 0.195374 5.76796 0.577709 4.82C0.960044 3.87203 1.52089 3.01069 2.22816 2.28529C2.93543 1.55989 3.77523 0.98466 4.6995 0.592522C5.62377 0.200384 6.61436 -0.000963427 7.61459 3.46587e-06Z" fill="#470137"/>
<path d="M22.3663 13.009L16.9913 21.8777L22.7247 31.284C22.7624 31.3489 22.7751 31.4253 22.7605 31.499C22.7426 31.5706 22.6709 31.5169 22.5634 31.5348H18.4605C18.1738 31.5348 17.9767 31.5169 17.8513 31.3377C17.4751 30.5852 17.0809 29.8506 16.7047 29.0981C16.3284 28.3456 15.9163 27.6111 15.4863 26.8406C15.0563 26.0702 14.6263 25.2998 14.1963 24.5115H14.1605C13.7842 25.2819 13.3722 26.0523 12.9601 26.8227C12.548 27.5931 12.1359 28.3636 11.7417 29.1161C11.3476 29.8686 10.9176 30.639 10.5055 31.3736C10.4338 31.5527 10.2905 31.5706 10.0934 31.5706H6.15174C6.08007 31.5706 6.02632 31.6065 6.02632 31.5169C6.01832 31.4833 6.01738 31.4485 6.02355 31.4146C6.02972 31.3807 6.04286 31.3484 6.06215 31.3198L11.6342 22.1823L6.20549 12.9911C6.15174 12.9194 6.13382 12.8477 6.16965 12.8119C6.1915 12.7863 6.21921 12.7665 6.25042 12.754C6.28162 12.7415 6.31539 12.7368 6.34882 12.7402H10.4159C10.5006 12.7421 10.5849 12.7541 10.6667 12.7761C10.7385 12.8147 10.8 12.87 10.8459 12.9373C11.1863 13.7077 11.5805 14.4781 11.9926 15.2486C12.4047 16.019 12.8347 16.7715 13.2826 17.524C13.7305 18.2765 14.1067 19.029 14.483 19.7994H14.5188C14.8951 19.0111 15.2892 18.2406 15.6834 17.4881C16.0776 16.7356 16.4897 15.9831 16.9017 15.2306C17.3138 14.4781 17.708 13.7077 18.1022 12.9731C18.1157 12.9026 18.1538 12.8392 18.2097 12.794C18.2806 12.7548 18.3631 12.7421 18.4426 12.7581H22.223C22.2442 12.7534 22.2661 12.7529 22.2875 12.7566C22.3088 12.7603 22.3293 12.7683 22.3476 12.7799C22.3659 12.7916 22.3817 12.8067 22.3942 12.8245C22.4066 12.8423 22.4154 12.8624 22.4201 12.8836C22.438 12.9015 22.4022 12.9731 22.3663 13.009Z" fill="#FF61F6"/>
<path d="M30.6442 31.9111C29.3161 31.9329 28 31.6574 26.7921 31.1048C25.6683 30.5793 24.7265 29.7311 24.0867 28.6682C23.4238 27.5753 23.1013 26.2136 23.1013 24.5832C23.0831 23.2573 23.4236 21.9511 24.0867 20.8028C24.7666 19.6357 25.7514 18.6757 26.9354 18.0257C28.1896 17.3269 29.6946 16.9865 31.4684 16.9865C31.594 16.9851 31.7197 16.9911 31.8446 17.0044C32.0059 17.0223 32.185 17.0223 32.4 17.0403V11.3786C32.4 11.2532 32.4538 11.1815 32.5792 11.1815H36.2163C36.2564 11.1761 36.2972 11.186 36.3304 11.2092C36.3636 11.2324 36.3868 11.2673 36.3954 11.3069V28.3994C36.3954 28.7219 36.4134 29.0803 36.4313 29.4744C36.4492 29.8686 36.485 30.209 36.5029 30.5136C36.5068 30.5741 36.4915 30.6343 36.4594 30.6857C36.4273 30.7371 36.3798 30.7772 36.3238 30.8003C35.3853 31.1947 34.4058 31.4831 33.4034 31.6603C32.4928 31.8245 31.5695 31.9084 30.6442 31.9111ZM32.4 28.3278V20.4444C32.2405 20.4059 32.079 20.376 31.9163 20.3548C31.7192 20.3369 31.5221 20.319 31.325 20.319C30.6227 20.3111 29.9287 20.4708 29.3004 20.7848C28.6882 21.0899 28.164 21.5463 27.7775 22.1107C27.3834 22.684 27.1863 23.4544 27.1863 24.3861C27.1707 25.0149 27.274 25.641 27.4909 26.2315C27.6641 26.709 27.9393 27.1431 28.2971 27.5036C28.6425 27.8332 29.0595 28.0785 29.5154 28.2203C29.9954 28.3774 30.4975 28.4561 31.0025 28.4532C31.2713 28.4532 31.5221 28.4353 31.755 28.4173C31.9739 28.433 32.1937 28.4024 32.4 28.3278Z" fill="#FF61F6"/>
</g>
<defs>
<clipPath id="clip0_150_1038">
<rect width="43" height="43" fill="white"/>
</clipPath>
</defs>
</svg>
